<mxfile host="app.diagrams.net" modified="2023-03-13T01:18:45.064Z" agent="5.0 (Windows NT 6.3; Win64; x64) AppleWebKit/537.36 (KHTML, like Gecko) Chrome/105.0.0.0 Safari/537.36" etag="QiAMV6f3Rx8tUEHI8Cr3" version="21.0.6" type="github" pages="2">
  <diagram name="REGISTRO-INICIAR SECION" id="O11Y_Xe0iyi4Op4CgO3t">
    <mxGraphModel dx="2061" dy="1875" grid="1" gridSize="10" guides="1" tooltips="1" connect="1" arrows="1" fold="1" page="1" pageScale="1" pageWidth="850" pageHeight="1100" math="0" shadow="0">
      <root>
        <mxCell id="0" />
        <mxCell id="1" parent="0" />
        <mxCell id="5JQ4-HuBJbf6vMoPK44V-8" value="&lt;font color=&quot;#ffffff&quot;&gt;usuario&lt;/font&gt;" style="whiteSpace=wrap;html=1;align=center;labelBorderColor=none;strokeColor=#9673a6;fillColor=#524E54;gradientColor=#141414;strokeWidth=2;" parent="1" vertex="1">
          <mxGeometry x="-300" y="160" width="90" height="30" as="geometry" />
        </mxCell>
        <mxCell id="5JQ4-HuBJbf6vMoPK44V-13" style="edgeStyle=orthogonalEdgeStyle;rounded=0;orthogonalLoop=1;jettySize=auto;html=1;entryX=0.25;entryY=0;entryDx=0;entryDy=0;endArrow=none;endFill=0;fillColor=#e1d5e7;strokeColor=#DBA6FF;" parent="1" source="5JQ4-HuBJbf6vMoPK44V-9" target="5JQ4-HuBJbf6vMoPK44V-8" edge="1">
          <mxGeometry relative="1" as="geometry">
            <Array as="points">
              <mxPoint x="-430" y="130" />
              <mxPoint x="-290" y="130" />
              <mxPoint x="-290" y="140" />
              <mxPoint x="-277" y="140" />
            </Array>
          </mxGeometry>
        </mxCell>
        <mxCell id="5JQ4-HuBJbf6vMoPK44V-9" value="nom_usuario" style="ellipse;whiteSpace=wrap;html=1;align=center;strokeColor=#B189C4;strokeWidth=3;" parent="1" vertex="1">
          <mxGeometry x="-470" y="70" width="80" height="30" as="geometry" />
        </mxCell>
        <mxCell id="5JQ4-HuBJbf6vMoPK44V-12" style="edgeStyle=orthogonalEdgeStyle;rounded=0;orthogonalLoop=1;jettySize=auto;html=1;endArrow=none;endFill=0;fillColor=#e1d5e7;strokeColor=#DBA6FF;entryX=0;entryY=0.25;entryDx=0;entryDy=0;" parent="1" source="5JQ4-HuBJbf6vMoPK44V-10" target="5JQ4-HuBJbf6vMoPK44V-8" edge="1">
          <mxGeometry relative="1" as="geometry">
            <mxPoint x="-310" y="170" as="targetPoint" />
            <Array as="points">
              <mxPoint x="-360" y="160" />
              <mxPoint x="-360" y="175" />
              <mxPoint x="-300" y="175" />
            </Array>
          </mxGeometry>
        </mxCell>
        <mxCell id="5JQ4-HuBJbf6vMoPK44V-10" value="Id_usuario" style="ellipse;whiteSpace=wrap;html=1;align=center;fontStyle=4;strokeColor=#B189C4;strokeWidth=3;" parent="1" vertex="1">
          <mxGeometry x="-490" y="140" width="70" height="30" as="geometry" />
        </mxCell>
        <mxCell id="5JQ4-HuBJbf6vMoPK44V-16" style="edgeStyle=orthogonalEdgeStyle;rounded=0;orthogonalLoop=1;jettySize=auto;html=1;entryX=0.333;entryY=0.033;entryDx=0;entryDy=0;entryPerimeter=0;endArrow=none;endFill=0;fillColor=#e1d5e7;strokeColor=#DBA6FF;" parent="1" source="5JQ4-HuBJbf6vMoPK44V-15" target="5JQ4-HuBJbf6vMoPK44V-8" edge="1">
          <mxGeometry relative="1" as="geometry">
            <Array as="points">
              <mxPoint x="-370" y="80" />
              <mxPoint x="-270" y="80" />
            </Array>
          </mxGeometry>
        </mxCell>
        <mxCell id="5JQ4-HuBJbf6vMoPK44V-15" value="password" style="ellipse;whiteSpace=wrap;html=1;align=center;strokeWidth=3;strokeColor=#B189C4;" parent="1" vertex="1">
          <mxGeometry x="-410" y="-20" width="80" height="30" as="geometry" />
        </mxCell>
        <mxCell id="5JQ4-HuBJbf6vMoPK44V-21" style="edgeStyle=orthogonalEdgeStyle;rounded=0;orthogonalLoop=1;jettySize=auto;html=1;entryX=0.5;entryY=0;entryDx=0;entryDy=0;endArrow=none;endFill=0;strokeColor=#DBA6FF;" parent="1" source="5JQ4-HuBJbf6vMoPK44V-18" target="5JQ4-HuBJbf6vMoPK44V-8" edge="1">
          <mxGeometry relative="1" as="geometry" />
        </mxCell>
        <mxCell id="5JQ4-HuBJbf6vMoPK44V-18" value="correo" style="ellipse;whiteSpace=wrap;html=1;align=center;strokeWidth=3;strokeColor=#B189C4;" parent="1" vertex="1">
          <mxGeometry x="-290" y="20" width="80" height="30" as="geometry" />
        </mxCell>
        <mxCell id="5JQ4-HuBJbf6vMoPK44V-22" style="edgeStyle=orthogonalEdgeStyle;rounded=0;orthogonalLoop=1;jettySize=auto;html=1;entryX=0.75;entryY=0;entryDx=0;entryDy=0;endArrow=none;endFill=0;strokeColor=#DBA6FF;" parent="1" source="5JQ4-HuBJbf6vMoPK44V-20" target="5JQ4-HuBJbf6vMoPK44V-8" edge="1">
          <mxGeometry relative="1" as="geometry">
            <mxPoint x="200" y="160" as="targetPoint" />
            <Array as="points">
              <mxPoint x="-190" y="135" />
              <mxPoint x="-233" y="135" />
            </Array>
          </mxGeometry>
        </mxCell>
        <mxCell id="5JQ4-HuBJbf6vMoPK44V-20" value="NÃºmero" style="ellipse;whiteSpace=wrap;html=1;align=center;strokeWidth=3;strokeColor=#B189C4;" parent="1" vertex="1">
          <mxGeometry x="-260" y="-50" width="80" height="30" as="geometry" />
        </mxCell>
        <mxCell id="5JQ4-HuBJbf6vMoPK44V-27" value="&lt;font color=&quot;#ffffff&quot;&gt;tsusuario&lt;/font&gt;" style="whiteSpace=wrap;html=1;align=center;fillColor=#1C1C1C;gradientColor=#757575;" parent="1" vertex="1">
          <mxGeometry x="210" y="140" width="90" height="30" as="geometry" />
        </mxCell>
        <mxCell id="5JQ4-HuBJbf6vMoPK44V-42" style="edgeStyle=orthogonalEdgeStyle;rounded=0;orthogonalLoop=1;jettySize=auto;html=1;endArrow=none;endFill=0;strokeColor=#4C0099;" parent="1" source="5JQ4-HuBJbf6vMoPK44V-28" target="5JQ4-HuBJbf6vMoPK44V-27" edge="1">
          <mxGeometry relative="1" as="geometry">
            <Array as="points">
              <mxPoint x="510" y="190" />
              <mxPoint x="510" y="155" />
            </Array>
          </mxGeometry>
        </mxCell>
        <mxCell id="5JQ4-HuBJbf6vMoPK44V-28" value="puesto" style="ellipse;whiteSpace=wrap;html=1;align=center;strokeColor=#E5CCFF;strokeWidth=3;" parent="1" vertex="1">
          <mxGeometry x="390" y="190" width="80" height="30" as="geometry" />
        </mxCell>
        <mxCell id="5JQ4-HuBJbf6vMoPK44V-31" style="edgeStyle=orthogonalEdgeStyle;rounded=0;orthogonalLoop=1;jettySize=auto;html=1;exitX=0.39;exitY=1;exitDx=0;exitDy=0;exitPerimeter=0;entryX=1;entryY=0.75;entryDx=0;entryDy=0;endArrow=none;endFill=0;strokeColor=#DBA6FF;" parent="1" source="5JQ4-HuBJbf6vMoPK44V-29" target="5JQ4-HuBJbf6vMoPK44V-8" edge="1">
          <mxGeometry relative="1" as="geometry">
            <mxPoint x="230" y="190" as="targetPoint" />
            <Array as="points">
              <mxPoint x="-140" y="110" />
              <mxPoint x="-140" y="180" />
              <mxPoint x="-210" y="180" />
            </Array>
          </mxGeometry>
        </mxCell>
        <mxCell id="5JQ4-HuBJbf6vMoPK44V-29" value="fnacimiento" style="ellipse;whiteSpace=wrap;html=1;align=center;dashed=1;strokeWidth=3;strokeColor=#B189C4;" parent="1" vertex="1">
          <mxGeometry x="-180" y="70" width="100" height="40" as="geometry" />
        </mxCell>
        <mxCell id="5JQ4-HuBJbf6vMoPK44V-41" style="edgeStyle=orthogonalEdgeStyle;rounded=0;orthogonalLoop=1;jettySize=auto;html=1;entryX=0.25;entryY=0;entryDx=0;entryDy=0;endArrow=none;endFill=0;strokeColor=#4C0099;endSize=6;" parent="1" source="5JQ4-HuBJbf6vMoPK44V-40" target="5JQ4-HuBJbf6vMoPK44V-27" edge="1">
          <mxGeometry relative="1" as="geometry">
            <Array as="points">
              <mxPoint x="230" y="135" />
              <mxPoint x="280" y="135" />
              <mxPoint x="280" y="140" />
            </Array>
          </mxGeometry>
        </mxCell>
        <mxCell id="5JQ4-HuBJbf6vMoPK44V-40" value="&lt;span style=&quot;border-bottom: 1px dotted&quot;&gt;Id_usuario&amp;nbsp;&lt;/span&gt;" style="ellipse;html=1;align=center;whiteSpace=wrap;strokeWidth=3;strokeColor=#E5CCFF;" parent="1" vertex="1">
          <mxGeometry x="230" y="50" width="80" height="30" as="geometry" />
        </mxCell>
        <mxCell id="5JQ4-HuBJbf6vMoPK44V-45" style="edgeStyle=orthogonalEdgeStyle;rounded=0;orthogonalLoop=1;jettySize=auto;html=1;entryX=0.75;entryY=1;entryDx=0;entryDy=0;endArrow=none;endFill=0;strokeColor=#4C0099;" parent="1" source="5JQ4-HuBJbf6vMoPK44V-43" target="5JQ4-HuBJbf6vMoPK44V-27" edge="1">
          <mxGeometry relative="1" as="geometry" />
        </mxCell>
        <mxCell id="5JQ4-HuBJbf6vMoPK44V-43" value="nombre u" style="ellipse;whiteSpace=wrap;html=1;align=center;strokeWidth=3;strokeColor=#E5CCFF;" parent="1" vertex="1">
          <mxGeometry x="310" y="205" width="80" height="35" as="geometry" />
        </mxCell>
        <mxCell id="5JQ4-HuBJbf6vMoPK44V-47" style="edgeStyle=orthogonalEdgeStyle;rounded=0;orthogonalLoop=1;jettySize=auto;html=1;exitX=0.981;exitY=0.406;exitDx=0;exitDy=0;exitPerimeter=0;" parent="1" source="5JQ4-HuBJbf6vMoPK44V-46" edge="1">
          <mxGeometry relative="1" as="geometry">
            <mxPoint x="260" y="170" as="targetPoint" />
            <Array as="points">
              <mxPoint x="118" y="169" />
              <mxPoint x="118" y="210" />
              <mxPoint x="260" y="210" />
            </Array>
          </mxGeometry>
        </mxCell>
        <mxCell id="5JQ4-HuBJbf6vMoPK44V-48" style="edgeStyle=orthogonalEdgeStyle;rounded=0;orthogonalLoop=1;jettySize=auto;html=1;entryX=0.75;entryY=1;entryDx=0;entryDy=0;endArrow=none;endFill=0;exitX=0.048;exitY=0.508;exitDx=0;exitDy=0;exitPerimeter=0;" parent="1" source="5JQ4-HuBJbf6vMoPK44V-46" target="5JQ4-HuBJbf6vMoPK44V-8" edge="1">
          <mxGeometry relative="1" as="geometry">
            <mxPoint x="20" y="210" as="sourcePoint" />
          </mxGeometry>
        </mxCell>
        <mxCell id="5JQ4-HuBJbf6vMoPK44V-46" value="tiene" style="html=1;whiteSpace=wrap;aspect=fixed;shape=isoRectangle;" parent="1" vertex="1">
          <mxGeometry x="-90" y="145" width="100" height="60" as="geometry" />
        </mxCell>
        <mxCell id="TBzbjhjO_wLSgzRfMqFY-31" style="edgeStyle=orthogonalEdgeStyle;rounded=0;orthogonalLoop=1;jettySize=auto;html=1;strokeColor=#DBA6FF;endArrow=none;endFill=0;" parent="1" source="TBzbjhjO_wLSgzRfMqFY-29" target="5JQ4-HuBJbf6vMoPK44V-8" edge="1">
          <mxGeometry relative="1" as="geometry" />
        </mxCell>
        <mxCell id="TBzbjhjO_wLSgzRfMqFY-29" value="&lt;span style=&quot;border-bottom: 1px dotted&quot;&gt;Id_Tusuario&amp;nbsp;&lt;/span&gt;" style="ellipse;html=1;align=center;whiteSpace=wrap;strokeWidth=3;strokeColor=#E5CCFF;" parent="1" vertex="1">
          <mxGeometry x="-340" y="250" width="95" height="40" as="geometry" />
        </mxCell>
        <mxCell id="TBzbjhjO_wLSgzRfMqFY-34" style="edgeStyle=orthogonalEdgeStyle;rounded=0;orthogonalLoop=1;jettySize=auto;html=1;strokeColor=#4C0099;endArrow=none;endFill=0;entryX=0;entryY=0.5;entryDx=0;entryDy=0;" parent="1" source="TBzbjhjO_wLSgzRfMqFY-33" target="5JQ4-HuBJbf6vMoPK44V-27" edge="1">
          <mxGeometry relative="1" as="geometry">
            <mxPoint x="200" y="160" as="targetPoint" />
            <Array as="points">
              <mxPoint x="130" y="160" />
              <mxPoint x="210" y="160" />
            </Array>
          </mxGeometry>
        </mxCell>
        <mxCell id="TBzbjhjO_wLSgzRfMqFY-33" value="Id_Tusuario" style="ellipse;whiteSpace=wrap;html=1;align=center;fontStyle=4;strokeColor=#B189C4;strokeWidth=3;" parent="1" vertex="1">
          <mxGeometry x="100" y="70" width="70" height="30" as="geometry" />
        </mxCell>
        <mxCell id="mNMagLvUFVFARpI_yHpn-1" value="cuenta&amp;nbsp;" style="whiteSpace=wrap;html=1;align=center;strokeColor=#7F00FF;fontFamily=Helvetica;fontSize=12;fontColor=default;startSize=30;fillColor=default;" parent="1" vertex="1">
          <mxGeometry x="-410" y="510" width="100" height="40" as="geometry" />
        </mxCell>
        <mxCell id="nVO7JTCg26ShXSmoMaEE-2" style="edgeStyle=orthogonalEdgeStyle;rounded=0;orthogonalLoop=1;jettySize=auto;html=1;entryX=0.25;entryY=0;entryDx=0;entryDy=0;fontFamily=Helvetica;fontSize=12;fontColor=default;startSize=30;endArrow=none;endFill=0;" parent="1" target="mNMagLvUFVFARpI_yHpn-1" edge="1">
          <mxGeometry relative="1" as="geometry">
            <mxPoint x="-439.9999999999998" y="420" as="sourcePoint" />
          </mxGeometry>
        </mxCell>
        <mxCell id="-wXFI1rdnMrXTkM6pmks-2" style="edgeStyle=orthogonalEdgeStyle;rounded=0;orthogonalLoop=1;jettySize=auto;html=1;entryX=0.57;entryY=-0.025;entryDx=0;entryDy=0;entryPerimeter=0;fontFamily=Helvetica;fontSize=12;fontColor=default;startSize=30;endArrow=none;endFill=0;" parent="1" source="-wXFI1rdnMrXTkM6pmks-1" target="mNMagLvUFVFARpI_yHpn-1" edge="1">
          <mxGeometry relative="1" as="geometry" />
        </mxCell>
        <mxCell id="-wXFI1rdnMrXTkM6pmks-1" value="password" style="ellipse;whiteSpace=wrap;html=1;align=center;strokeColor=default;fontFamily=Helvetica;fontSize=12;fontColor=default;startSize=30;fillColor=default;" parent="1" vertex="1">
          <mxGeometry x="-360" y="400" width="100" height="40" as="geometry" />
        </mxCell>
        <mxCell id="wjJxPOTxQUsEdt5J6UbP-1" value="aplicaciÃ³n" style="whiteSpace=wrap;html=1;align=center;strokeColor=#6600CC;fontFamily=Helvetica;fontSize=12;fontColor=default;startSize=30;fillColor=default;" parent="1" vertex="1">
          <mxGeometry x="-10" y="480" width="100" height="40" as="geometry" />
        </mxCell>
        <mxCell id="XHNi-YGADETcQmlyDCiC-8" style="edgeStyle=orthogonalEdgeStyle;rounded=0;orthogonalLoop=1;jettySize=auto;html=1;fontFamily=Helvetica;fontSize=12;fontColor=default;startSize=30;endArrow=none;endFill=0;" parent="1" source="XHNi-YGADETcQmlyDCiC-7" target="mNMagLvUFVFARpI_yHpn-1" edge="1">
          <mxGeometry relative="1" as="geometry">
            <mxPoint x="-420" y="540" as="targetPoint" />
            <Array as="points">
              <mxPoint x="-480" y="550" />
            </Array>
          </mxGeometry>
        </mxCell>
        <mxCell id="XHNi-YGADETcQmlyDCiC-7" value="nom_usuario" style="ellipse;whiteSpace=wrap;html=1;align=center;strokeColor=#141414;strokeWidth=1;" parent="1" vertex="1">
          <mxGeometry x="-520" y="500" width="80" height="30" as="geometry" />
        </mxCell>
        <mxCell id="XHNi-YGADETcQmlyDCiC-14" style="edgeStyle=orthogonalEdgeStyle;rounded=0;orthogonalLoop=1;jettySize=auto;html=1;entryX=0.89;entryY=1.006;entryDx=0;entryDy=0;entryPerimeter=0;fontFamily=Helvetica;fontSize=12;fontColor=default;startSize=30;endArrow=none;endFill=0;" parent="1" source="XHNi-YGADETcQmlyDCiC-13" target="mNMagLvUFVFARpI_yHpn-1" edge="1">
          <mxGeometry relative="1" as="geometry" />
        </mxCell>
        <mxCell id="XHNi-YGADETcQmlyDCiC-15" style="edgeStyle=orthogonalEdgeStyle;rounded=0;orthogonalLoop=1;jettySize=auto;html=1;entryX=0.604;entryY=1.042;entryDx=0;entryDy=0;entryPerimeter=0;fontFamily=Helvetica;fontSize=12;fontColor=default;startSize=30;endArrow=none;endFill=0;" parent="1" source="XHNi-YGADETcQmlyDCiC-13" target="wjJxPOTxQUsEdt5J6UbP-1" edge="1">
          <mxGeometry relative="1" as="geometry" />
        </mxCell>
        <mxCell id="XHNi-YGADETcQmlyDCiC-13" value="tiene" style="shape=rhombus;perimeter=rhombusPerimeter;whiteSpace=wrap;html=1;align=center;strokeColor=default;fontFamily=Helvetica;fontSize=12;fontColor=default;startSize=30;fillColor=default;" parent="1" vertex="1">
          <mxGeometry x="-190" y="540" width="120" height="60" as="geometry" />
        </mxCell>
        <mxCell id="jbo6Cp1VA53Sl-1QjP-0-1" value="&lt;span style=&quot;border-bottom: 1px dotted&quot;&gt;Id_usuario&lt;/span&gt;" style="ellipse;whiteSpace=wrap;html=1;align=center;strokeColor=default;fontFamily=Helvetica;fontSize=12;fontColor=default;startSize=30;fillColor=default;" parent="1" vertex="1">
          <mxGeometry x="-540" y="400" width="100" height="40" as="geometry" />
        </mxCell>
        <mxCell id="jbo6Cp1VA53Sl-1QjP-0-5" style="edgeStyle=orthogonalEdgeStyle;rounded=0;orthogonalLoop=1;jettySize=auto;html=1;entryX=0.63;entryY=1.038;entryDx=0;entryDy=0;entryPerimeter=0;fontFamily=Helvetica;fontSize=12;fontColor=default;startSize=30;" parent="1" source="jbo6Cp1VA53Sl-1QjP-0-3" target="mNMagLvUFVFARpI_yHpn-1" edge="1">
          <mxGeometry relative="1" as="geometry" />
        </mxCell>
        <mxCell id="jbo6Cp1VA53Sl-1QjP-0-3" value="Id_cuenta" style="ellipse;whiteSpace=wrap;html=1;align=center;fontStyle=4;strokeColor=default;fontFamily=Helvetica;fontSize=12;fontColor=default;startSize=30;fillColor=default;" parent="1" vertex="1">
          <mxGeometry x="-500" y="600" width="100" height="50" as="geometry" />
        </mxCell>
        <mxCell id="nCbh148VY4gw8LmBXYpR-14" style="edgeStyle=orthogonalEdgeStyle;rounded=0;orthogonalLoop=1;jettySize=auto;html=1;entryX=0;entryY=0.75;entryDx=0;entryDy=0;fontFamily=Helvetica;fontSize=12;fontColor=default;startSize=30;endArrow=none;endFill=0;" parent="1" source="nCbh148VY4gw8LmBXYpR-13" target="wjJxPOTxQUsEdt5J6UbP-1" edge="1">
          <mxGeometry relative="1" as="geometry" />
        </mxCell>
        <mxCell id="nCbh148VY4gw8LmBXYpR-13" value="&lt;span style=&quot;border-bottom: 1px dotted&quot;&gt;Id_usuario&amp;nbsp;&lt;/span&gt;" style="ellipse;html=1;align=center;whiteSpace=wrap;strokeWidth=3;strokeColor=#E5CCFF;" parent="1" vertex="1">
          <mxGeometry x="-110" y="420" width="80" height="30" as="geometry" />
        </mxCell>
        <mxCell id="nCbh148VY4gw8LmBXYpR-16" style="edgeStyle=orthogonalEdgeStyle;rounded=0;orthogonalLoop=1;jettySize=auto;html=1;entryX=0.75;entryY=0;entryDx=0;entryDy=0;fontFamily=Helvetica;fontSize=12;fontColor=default;startSize=30;endArrow=none;endFill=0;" parent="1" source="nCbh148VY4gw8LmBXYpR-15" target="wjJxPOTxQUsEdt5J6UbP-1" edge="1">
          <mxGeometry relative="1" as="geometry" />
        </mxCell>
        <mxCell id="nCbh148VY4gw8LmBXYpR-15" value="Id_aplicaciÃ³n" style="ellipse;whiteSpace=wrap;html=1;align=center;fontStyle=4;strokeColor=default;fontFamily=Helvetica;fontSize=12;fontColor=default;startSize=30;fillColor=default;" parent="1" vertex="1">
          <mxGeometry x="30" y="390" width="100" height="30" as="geometry" />
        </mxCell>
        <mxCell id="nCbh148VY4gw8LmBXYpR-18" style="edgeStyle=orthogonalEdgeStyle;rounded=0;orthogonalLoop=1;jettySize=auto;html=1;entryX=1;entryY=0.25;entryDx=0;entryDy=0;fontFamily=Helvetica;fontSize=12;fontColor=default;startSize=30;endArrow=none;endFill=0;" parent="1" source="nCbh148VY4gw8LmBXYpR-17" target="wjJxPOTxQUsEdt5J6UbP-1" edge="1">
          <mxGeometry relative="1" as="geometry" />
        </mxCell>
        <mxCell id="nCbh148VY4gw8LmBXYpR-17" value="calculadora financiera" style="ellipse;whiteSpace=wrap;html=1;align=center;strokeColor=default;fontFamily=Helvetica;fontSize=12;fontColor=default;startSize=30;fillColor=default;" parent="1" vertex="1">
          <mxGeometry x="150" y="480" width="100" height="40" as="geometry" />
        </mxCell>
        <mxCell id="nCbh148VY4gw8LmBXYpR-19" value="registros" style="whiteSpace=wrap;html=1;align=center;strokeColor=#6c8ebf;fontFamily=Helvetica;fontSize=12;startSize=30;fillColor=#dae8fc;" parent="1" vertex="1">
          <mxGeometry x="380" y="545" width="100" height="50" as="geometry" />
        </mxCell>
        <mxCell id="nCbh148VY4gw8LmBXYpR-21" style="edgeStyle=orthogonalEdgeStyle;rounded=0;orthogonalLoop=1;jettySize=auto;html=1;entryX=0.75;entryY=0;entryDx=0;entryDy=0;fontFamily=Helvetica;fontSize=12;fontColor=default;startSize=30;endArrow=none;endFill=0;" parent="1" source="nCbh148VY4gw8LmBXYpR-20" target="nCbh148VY4gw8LmBXYpR-19" edge="1">
          <mxGeometry relative="1" as="geometry" />
        </mxCell>
        <mxCell id="nCbh148VY4gw8LmBXYpR-20" value="Id_registros" style="ellipse;whiteSpace=wrap;html=1;align=center;fontStyle=4;strokeColor=default;fontFamily=Helvetica;fontSize=12;fontColor=default;startSize=30;fillColor=default;" parent="1" vertex="1">
          <mxGeometry x="380" y="480" width="100" height="30" as="geometry" />
        </mxCell>
        <mxCell id="nCbh148VY4gw8LmBXYpR-25" style="edgeStyle=orthogonalEdgeStyle;rounded=0;orthogonalLoop=1;jettySize=auto;html=1;entryX=1;entryY=0;entryDx=0;entryDy=0;fontFamily=Helvetica;fontSize=12;fontColor=default;startSize=30;endArrow=none;endFill=0;" parent="1" source="nCbh148VY4gw8LmBXYpR-23" target="wjJxPOTxQUsEdt5J6UbP-1" edge="1">
          <mxGeometry relative="1" as="geometry" />
        </mxCell>
        <mxCell id="nCbh148VY4gw8LmBXYpR-23" value="procesador de textos" style="ellipse;whiteSpace=wrap;html=1;align=center;strokeColor=default;fontFamily=Helvetica;fontSize=12;fontColor=default;startSize=30;fillColor=default;" parent="1" vertex="1">
          <mxGeometry x="170" y="410" width="100" height="40" as="geometry" />
        </mxCell>
        <mxCell id="nCbh148VY4gw8LmBXYpR-28" style="edgeStyle=orthogonalEdgeStyle;rounded=0;orthogonalLoop=1;jettySize=auto;html=1;entryX=1;entryY=0.75;entryDx=0;entryDy=0;fontFamily=Helvetica;fontSize=12;fontColor=default;startSize=30;endArrow=none;endFill=0;" parent="1" source="nCbh148VY4gw8LmBXYpR-27" target="nCbh148VY4gw8LmBXYpR-19" edge="1">
          <mxGeometry relative="1" as="geometry" />
        </mxCell>
        <mxCell id="nCbh148VY4gw8LmBXYpR-27" value="actividad" style="ellipse;whiteSpace=wrap;html=1;align=center;strokeColor=default;fontFamily=Helvetica;fontSize=12;fontColor=default;startSize=30;fillColor=default;" parent="1" vertex="1">
          <mxGeometry x="520" y="540" width="100" height="40" as="geometry" />
        </mxCell>
        <mxCell id="nCbh148VY4gw8LmBXYpR-30" style="edgeStyle=orthogonalEdgeStyle;rounded=0;orthogonalLoop=1;jettySize=auto;html=1;entryX=1;entryY=1;entryDx=0;entryDy=0;fontFamily=Helvetica;fontSize=12;fontColor=default;startSize=30;endArrow=none;endFill=0;" parent="1" source="nCbh148VY4gw8LmBXYpR-29" target="wjJxPOTxQUsEdt5J6UbP-1" edge="1">
          <mxGeometry relative="1" as="geometry" />
        </mxCell>
        <mxCell id="nCbh148VY4gw8LmBXYpR-29" value="&lt;span style=&quot;border-bottom: 1px dotted&quot;&gt;Id_registros&amp;nbsp;&lt;/span&gt;" style="ellipse;html=1;align=center;whiteSpace=wrap;strokeWidth=3;strokeColor=#E5CCFF;" parent="1" vertex="1">
          <mxGeometry x="160" y="565" width="80" height="30" as="geometry" />
        </mxCell>
        <mxCell id="nCbh148VY4gw8LmBXYpR-32" style="edgeStyle=orthogonalEdgeStyle;rounded=0;orthogonalLoop=1;jettySize=auto;html=1;entryX=0.5;entryY=1;entryDx=0;entryDy=0;fontFamily=Helvetica;fontSize=12;fontColor=default;startSize=30;endArrow=none;endFill=0;" parent="1" source="nCbh148VY4gw8LmBXYpR-31" target="nCbh148VY4gw8LmBXYpR-19" edge="1">
          <mxGeometry relative="1" as="geometry" />
        </mxCell>
        <mxCell id="nCbh148VY4gw8LmBXYpR-31" value="&lt;span style=&quot;border-bottom: 1px dotted&quot;&gt;Id_transacciones financieras&lt;/span&gt;" style="ellipse;html=1;align=center;whiteSpace=wrap;strokeWidth=3;strokeColor=#E5CCFF;" parent="1" vertex="1">
          <mxGeometry x="380" y="630" width="120" height="60" as="geometry" />
        </mxCell>
        <mxCell id="nCbh148VY4gw8LmBXYpR-34" style="edgeStyle=orthogonalEdgeStyle;rounded=0;orthogonalLoop=1;jettySize=auto;html=1;entryX=0;entryY=0.5;entryDx=0;entryDy=0;fontFamily=Helvetica;fontSize=12;fontColor=default;startSize=30;" parent="1" source="nCbh148VY4gw8LmBXYpR-33" target="nCbh148VY4gw8LmBXYpR-19" edge="1">
          <mxGeometry relative="1" as="geometry" />
        </mxCell>
        <mxCell id="nCbh148VY4gw8LmBXYpR-35" style="edgeStyle=orthogonalEdgeStyle;rounded=0;orthogonalLoop=1;jettySize=auto;html=1;entryX=0.75;entryY=1;entryDx=0;entryDy=0;fontFamily=Helvetica;fontSize=12;fontColor=default;startSize=30;endArrow=none;endFill=0;" parent="1" source="nCbh148VY4gw8LmBXYpR-33" target="wjJxPOTxQUsEdt5J6UbP-1" edge="1">
          <mxGeometry relative="1" as="geometry" />
        </mxCell>
        <mxCell id="nCbh148VY4gw8LmBXYpR-33" value="tiene" style="shape=rhombus;perimeter=rhombusPerimeter;whiteSpace=wrap;html=1;align=center;strokeColor=default;fontFamily=Helvetica;fontSize=12;fontColor=default;startSize=30;fillColor=default;" parent="1" vertex="1">
          <mxGeometry x="140" y="650" width="120" height="60" as="geometry" />
        </mxCell>
        <mxCell id="nCbh148VY4gw8LmBXYpR-36" value="transacciones financieras" style="whiteSpace=wrap;html=1;align=center;strokeColor=#6c8ebf;fontFamily=Helvetica;fontSize=12;startSize=30;fillColor=#dae8fc;" parent="1" vertex="1">
          <mxGeometry x="840" y="650" width="100" height="40" as="geometry" />
        </mxCell>
        <mxCell id="nCbh148VY4gw8LmBXYpR-38" style="edgeStyle=orthogonalEdgeStyle;rounded=0;orthogonalLoop=1;jettySize=auto;html=1;entryX=0.5;entryY=1;entryDx=0;entryDy=0;fontFamily=Helvetica;fontSize=12;fontColor=default;startSize=30;endArrow=none;endFill=0;" parent="1" source="nCbh148VY4gw8LmBXYpR-37" target="5JQ4-HuBJbf6vMoPK44V-27" edge="1">
          <mxGeometry relative="1" as="geometry" />
        </mxCell>
        <mxCell id="nCbh148VY4gw8LmBXYpR-39" style="edgeStyle=orthogonalEdgeStyle;rounded=0;orthogonalLoop=1;jettySize=auto;html=1;entryX=0.5;entryY=0;entryDx=0;entryDy=0;fontFamily=Helvetica;fontSize=12;fontColor=default;startSize=30;endArrow=none;endFill=0;" parent="1" source="nCbh148VY4gw8LmBXYpR-37" target="mNMagLvUFVFARpI_yHpn-1" edge="1">
          <mxGeometry relative="1" as="geometry" />
        </mxCell>
        <mxCell id="nCbh148VY4gw8LmBXYpR-37" value="tiene" style="shape=rhombus;perimeter=rhombusPerimeter;whiteSpace=wrap;html=1;align=center;strokeColor=default;fontFamily=Helvetica;fontSize=12;fontColor=default;startSize=30;fillColor=default;" parent="1" vertex="1">
          <mxGeometry x="-190" y="290" width="120" height="60" as="geometry" />
        </mxCell>
        <mxCell id="nCbh148VY4gw8LmBXYpR-43" style="edgeStyle=orthogonalEdgeStyle;rounded=0;orthogonalLoop=1;jettySize=auto;html=1;entryX=1;entryY=0.75;entryDx=0;entryDy=0;fontFamily=Helvetica;fontSize=12;fontColor=default;startSize=30;" parent="1" source="nCbh148VY4gw8LmBXYpR-40" target="nCbh148VY4gw8LmBXYpR-36" edge="1">
          <mxGeometry relative="1" as="geometry" />
        </mxCell>
        <mxCell id="nCbh148VY4gw8LmBXYpR-40" value="compras" style="ellipse;whiteSpace=wrap;html=1;align=center;strokeColor=default;fontFamily=Helvetica;fontSize=12;fontColor=default;startSize=30;fillColor=default;" parent="1" vertex="1">
          <mxGeometry x="950" y="580" width="100" height="40" as="geometry" />
        </mxCell>
        <mxCell id="nCbh148VY4gw8LmBXYpR-42" style="edgeStyle=orthogonalEdgeStyle;rounded=0;orthogonalLoop=1;jettySize=auto;html=1;entryX=0.75;entryY=0;entryDx=0;entryDy=0;fontFamily=Helvetica;fontSize=12;fontColor=default;startSize=30;" parent="1" source="nCbh148VY4gw8LmBXYpR-41" target="nCbh148VY4gw8LmBXYpR-36" edge="1">
          <mxGeometry relative="1" as="geometry" />
        </mxCell>
        <mxCell id="nCbh148VY4gw8LmBXYpR-41" value="Id_transacciones financieras" style="ellipse;whiteSpace=wrap;html=1;align=center;fontStyle=4;strokeColor=default;fontFamily=Helvetica;fontSize=12;fontColor=default;startSize=30;fillColor=default;" parent="1" vertex="1">
          <mxGeometry x="770" y="550" width="130" height="60" as="geometry" />
        </mxCell>
        <mxCell id="nCbh148VY4gw8LmBXYpR-45" style="edgeStyle=orthogonalEdgeStyle;rounded=0;orthogonalLoop=1;jettySize=auto;html=1;entryX=0.5;entryY=1;entryDx=0;entryDy=0;fontFamily=Helvetica;fontSize=12;fontColor=default;startSize=30;" parent="1" source="nCbh148VY4gw8LmBXYpR-44" target="nCbh148VY4gw8LmBXYpR-36" edge="1">
          <mxGeometry relative="1" as="geometry" />
        </mxCell>
        <mxCell id="nCbh148VY4gw8LmBXYpR-44" value="ventas" style="ellipse;whiteSpace=wrap;html=1;align=center;strokeColor=default;fontFamily=Helvetica;fontSize=12;fontColor=default;startSize=30;fillColor=default;" parent="1" vertex="1">
          <mxGeometry x="1000" y="700" width="100" height="40" as="geometry" />
        </mxCell>
        <mxCell id="nCbh148VY4gw8LmBXYpR-47" style="edgeStyle=orthogonalEdgeStyle;rounded=0;orthogonalLoop=1;jettySize=auto;html=1;entryX=0.25;entryY=1;entryDx=0;entryDy=0;fontFamily=Helvetica;fontSize=12;fontColor=default;startSize=30;" parent="1" source="nCbh148VY4gw8LmBXYpR-46" target="nCbh148VY4gw8LmBXYpR-36" edge="1">
          <mxGeometry relative="1" as="geometry" />
        </mxCell>
        <mxCell id="nCbh148VY4gw8LmBXYpR-46" value="pagos" style="ellipse;whiteSpace=wrap;html=1;align=center;strokeColor=default;fontFamily=Helvetica;fontSize=12;fontColor=default;startSize=30;fillColor=default;" parent="1" vertex="1">
          <mxGeometry x="820" y="760" width="100" height="40" as="geometry" />
        </mxCell>
        <mxCell id="nCbh148VY4gw8LmBXYpR-49" style="edgeStyle=orthogonalEdgeStyle;rounded=0;orthogonalLoop=1;jettySize=auto;html=1;entryX=0;entryY=0.5;entryDx=0;entryDy=0;fontFamily=Helvetica;fontSize=12;fontColor=default;startSize=30;" parent="1" source="nCbh148VY4gw8LmBXYpR-48" target="nCbh148VY4gw8LmBXYpR-36" edge="1">
          <mxGeometry relative="1" as="geometry" />
        </mxCell>
        <mxCell id="nCbh148VY4gw8LmBXYpR-50" style="edgeStyle=orthogonalEdgeStyle;rounded=0;orthogonalLoop=1;jettySize=auto;html=1;entryX=1;entryY=0.75;entryDx=0;entryDy=0;fontFamily=Helvetica;fontSize=12;fontColor=default;startSize=30;endArrow=classic;endFill=1;" parent="1" source="nCbh148VY4gw8LmBXYpR-48" target="nCbh148VY4gw8LmBXYpR-19" edge="1">
          <mxGeometry relative="1" as="geometry">
            <Array as="points">
              <mxPoint x="540" y="760" />
              <mxPoint x="540" y="590" />
              <mxPoint x="480" y="590" />
            </Array>
          </mxGeometry>
        </mxCell>
        <mxCell id="nCbh148VY4gw8LmBXYpR-48" value="tiene" style="shape=rhombus;perimeter=rhombusPerimeter;whiteSpace=wrap;html=1;align=center;strokeColor=default;fontFamily=Helvetica;fontSize=12;fontColor=default;startSize=30;fillColor=default;" parent="1" vertex="1">
          <mxGeometry x="600" y="730" width="120" height="60" as="geometry" />
        </mxCell>
        <mxCell id="AbDCEJB4aPMXwSdg25T--1" value="Attribute" style="ellipse;whiteSpace=wrap;html=1;align=center;fontStyle=4;strokeColor=default;fontFamily=Helvetica;fontSize=12;fontColor=default;startSize=30;fillColor=default;" vertex="1" parent="1">
          <mxGeometry x="570" y="620" width="100" height="40" as="geometry" />
        </mxCell>
      </root>
    </mxGraphModel>
  </diagram>
  <diagram id="_bCtE9RTCMWwcB1ifec8" name="tablas">
    <mxGraphModel dx="2221" dy="655" grid="1" gridSize="10" guides="1" tooltips="1" connect="1" arrows="1" fold="1" page="1" pageScale="1" pageWidth="827" pageHeight="1169" math="0" shadow="0">
      <root>
        <mxCell id="0" />
        <mxCell id="1" parent="0" />
        <mxCell id="ksB0llgoSpzoCcr4nQAD-1" value="USUARIO" style="shape=table;startSize=30;container=1;collapsible=1;childLayout=tableLayout;fixedRows=1;rowLines=0;fontStyle=1;align=center;resizeLast=1;html=1;strokeColor=default;fontFamily=Helvetica;fontSize=12;fontColor=default;fillColor=default;" vertex="1" parent="1">
          <mxGeometry x="70" y="120" width="180" height="240" as="geometry" />
        </mxCell>
        <mxCell id="ksB0llgoSpzoCcr4nQAD-2" value="" style="shape=tableRow;horizontal=0;startSize=0;swimlaneHead=0;swimlaneBody=0;fillColor=none;collapsible=0;dropTarget=0;points=[[0,0.5],[1,0.5]];portConstraint=eastwest;top=0;left=0;right=0;bottom=1;strokeColor=default;fontFamily=Helvetica;fontSize=12;fontColor=default;html=1;" vertex="1" parent="ksB0llgoSpzoCcr4nQAD-1">
          <mxGeometry y="30" width="180" height="30" as="geometry" />
        </mxCell>
        <mxCell id="ksB0llgoSpzoCcr4nQAD-3" value="PK" style="shape=partialRectangle;connectable=0;fillColor=none;top=0;left=0;bottom=0;right=0;fontStyle=1;overflow=hidden;whiteSpace=wrap;html=1;strokeColor=default;fontFamily=Helvetica;fontSize=12;fontColor=default;startSize=30;" vertex="1" parent="ksB0llgoSpzoCcr4nQAD-2">
          <mxGeometry width="30" height="30" as="geometry">
            <mxRectangle width="30" height="30" as="alternateBounds" />
          </mxGeometry>
        </mxCell>
        <mxCell id="ksB0llgoSpzoCcr4nQAD-4" value="&lt;span style=&quot;font-weight: normal;&quot;&gt;Id_usuario&lt;/span&gt;" style="shape=partialRectangle;connectable=0;fillColor=none;top=0;left=0;bottom=0;right=0;align=left;spacingLeft=6;fontStyle=5;overflow=hidden;whiteSpace=wrap;html=1;strokeColor=default;fontFamily=Helvetica;fontSize=12;fontColor=default;startSize=30;" vertex="1" parent="ksB0llgoSpzoCcr4nQAD-2">
          <mxGeometry x="30" width="150" height="30" as="geometry">
            <mxRectangle width="150" height="30" as="alternateBounds" />
          </mxGeometry>
        </mxCell>
        <mxCell id="ksB0llgoSpzoCcr4nQAD-5" value="" style="shape=tableRow;horizontal=0;startSize=0;swimlaneHead=0;swimlaneBody=0;fillColor=none;collapsible=0;dropTarget=0;points=[[0,0.5],[1,0.5]];portConstraint=eastwest;top=0;left=0;right=0;bottom=0;strokeColor=default;fontFamily=Helvetica;fontSize=12;fontColor=default;html=1;" vertex="1" parent="ksB0llgoSpzoCcr4nQAD-1">
          <mxGeometry y="60" width="180" height="30" as="geometry" />
        </mxCell>
        <mxCell id="ksB0llgoSpzoCcr4nQAD-6" value="" style="shape=partialRectangle;connectable=0;fillColor=none;top=0;left=0;bottom=0;right=0;editable=1;overflow=hidden;whiteSpace=wrap;html=1;strokeColor=default;fontFamily=Helvetica;fontSize=12;fontColor=default;startSize=30;" vertex="1" parent="ksB0llgoSpzoCcr4nQAD-5">
          <mxGeometry width="30" height="30" as="geometry">
            <mxRectangle width="30" height="30" as="alternateBounds" />
          </mxGeometry>
        </mxCell>
        <mxCell id="ksB0llgoSpzoCcr4nQAD-7" value="nom_usuario" style="shape=partialRectangle;connectable=0;fillColor=none;top=0;left=0;bottom=0;right=0;align=left;spacingLeft=6;overflow=hidden;whiteSpace=wrap;html=1;strokeColor=default;fontFamily=Helvetica;fontSize=12;fontColor=default;startSize=30;" vertex="1" parent="ksB0llgoSpzoCcr4nQAD-5">
          <mxGeometry x="30" width="150" height="30" as="geometry">
            <mxRectangle width="150" height="30" as="alternateBounds" />
          </mxGeometry>
        </mxCell>
        <mxCell id="ksB0llgoSpzoCcr4nQAD-8" value="" style="shape=tableRow;horizontal=0;startSize=0;swimlaneHead=0;swimlaneBody=0;fillColor=none;collapsible=0;dropTarget=0;points=[[0,0.5],[1,0.5]];portConstraint=eastwest;top=0;left=0;right=0;bottom=0;strokeColor=default;fontFamily=Helvetica;fontSize=12;fontColor=default;html=1;" vertex="1" parent="ksB0llgoSpzoCcr4nQAD-1">
          <mxGeometry y="90" width="180" height="30" as="geometry" />
        </mxCell>
        <mxCell id="ksB0llgoSpzoCcr4nQAD-9" value="" style="shape=partialRectangle;connectable=0;fillColor=none;top=0;left=0;bottom=0;right=0;editable=1;overflow=hidden;whiteSpace=wrap;html=1;strokeColor=default;fontFamily=Helvetica;fontSize=12;fontColor=default;startSize=30;" vertex="1" parent="ksB0llgoSpzoCcr4nQAD-8">
          <mxGeometry width="30" height="30" as="geometry">
            <mxRectangle width="30" height="30" as="alternateBounds" />
          </mxGeometry>
        </mxCell>
        <mxCell id="ksB0llgoSpzoCcr4nQAD-10" value="correo" style="shape=partialRectangle;connectable=0;fillColor=none;top=0;left=0;bottom=0;right=0;align=left;spacingLeft=6;overflow=hidden;whiteSpace=wrap;html=1;strokeColor=default;fontFamily=Helvetica;fontSize=12;fontColor=default;startSize=30;" vertex="1" parent="ksB0llgoSpzoCcr4nQAD-8">
          <mxGeometry x="30" width="150" height="30" as="geometry">
            <mxRectangle width="150" height="30" as="alternateBounds" />
          </mxGeometry>
        </mxCell>
        <mxCell id="ksB0llgoSpzoCcr4nQAD-11" value="" style="shape=tableRow;horizontal=0;startSize=0;swimlaneHead=0;swimlaneBody=0;fillColor=none;collapsible=0;dropTarget=0;points=[[0,0.5],[1,0.5]];portConstraint=eastwest;top=0;left=0;right=0;bottom=0;strokeColor=default;fontFamily=Helvetica;fontSize=12;fontColor=default;html=1;" vertex="1" parent="ksB0llgoSpzoCcr4nQAD-1">
          <mxGeometry y="120" width="180" height="30" as="geometry" />
        </mxCell>
        <mxCell id="ksB0llgoSpzoCcr4nQAD-12" value="" style="shape=partialRectangle;connectable=0;fillColor=none;top=0;left=0;bottom=0;right=0;editable=1;overflow=hidden;whiteSpace=wrap;html=1;strokeColor=default;fontFamily=Helvetica;fontSize=12;fontColor=default;startSize=30;" vertex="1" parent="ksB0llgoSpzoCcr4nQAD-11">
          <mxGeometry width="30" height="30" as="geometry">
            <mxRectangle width="30" height="30" as="alternateBounds" />
          </mxGeometry>
        </mxCell>
        <mxCell id="ksB0llgoSpzoCcr4nQAD-13" value="nÃºmero" style="shape=partialRectangle;connectable=0;fillColor=none;top=0;left=0;bottom=0;right=0;align=left;spacingLeft=6;overflow=hidden;whiteSpace=wrap;html=1;strokeColor=default;fontFamily=Helvetica;fontSize=12;fontColor=default;startSize=30;" vertex="1" parent="ksB0llgoSpzoCcr4nQAD-11">
          <mxGeometry x="30" width="150" height="30" as="geometry">
            <mxRectangle width="150" height="30" as="alternateBounds" />
          </mxGeometry>
        </mxCell>
        <mxCell id="ksB0llgoSpzoCcr4nQAD-14" value="" style="shape=tableRow;horizontal=0;startSize=0;swimlaneHead=0;swimlaneBody=0;fillColor=none;collapsible=0;dropTarget=0;points=[[0,0.5],[1,0.5]];portConstraint=eastwest;top=0;left=0;right=0;bottom=0;strokeColor=default;fontFamily=Helvetica;fontSize=12;fontColor=default;html=1;" vertex="1" parent="ksB0llgoSpzoCcr4nQAD-1">
          <mxGeometry y="150" width="180" height="30" as="geometry" />
        </mxCell>
        <mxCell id="ksB0llgoSpzoCcr4nQAD-15" value="" style="shape=partialRectangle;connectable=0;fillColor=none;top=0;left=0;bottom=0;right=0;editable=1;overflow=hidden;whiteSpace=wrap;html=1;strokeColor=default;fontFamily=Helvetica;fontSize=12;fontColor=default;startSize=30;" vertex="1" parent="ksB0llgoSpzoCcr4nQAD-14">
          <mxGeometry width="30" height="30" as="geometry">
            <mxRectangle width="30" height="30" as="alternateBounds" />
          </mxGeometry>
        </mxCell>
        <mxCell id="ksB0llgoSpzoCcr4nQAD-16" value="fnacimiento" style="shape=partialRectangle;connectable=0;fillColor=none;top=0;left=0;bottom=0;right=0;align=left;spacingLeft=6;overflow=hidden;whiteSpace=wrap;html=1;strokeColor=default;fontFamily=Helvetica;fontSize=12;fontColor=default;startSize=30;" vertex="1" parent="ksB0llgoSpzoCcr4nQAD-14">
          <mxGeometry x="30" width="150" height="30" as="geometry">
            <mxRectangle width="150" height="30" as="alternateBounds" />
          </mxGeometry>
        </mxCell>
        <mxCell id="ksB0llgoSpzoCcr4nQAD-17" value="" style="shape=tableRow;horizontal=0;startSize=0;swimlaneHead=0;swimlaneBody=0;fillColor=none;collapsible=0;dropTarget=0;points=[[0,0.5],[1,0.5]];portConstraint=eastwest;top=0;left=0;right=0;bottom=0;strokeColor=default;fontFamily=Helvetica;fontSize=12;fontColor=default;html=1;" vertex="1" parent="ksB0llgoSpzoCcr4nQAD-1">
          <mxGeometry y="180" width="180" height="30" as="geometry" />
        </mxCell>
        <mxCell id="ksB0llgoSpzoCcr4nQAD-18" value="" style="shape=partialRectangle;connectable=0;fillColor=none;top=0;left=0;bottom=0;right=0;editable=1;overflow=hidden;whiteSpace=wrap;html=1;strokeColor=default;fontFamily=Helvetica;fontSize=12;fontColor=default;startSize=30;" vertex="1" parent="ksB0llgoSpzoCcr4nQAD-17">
          <mxGeometry width="30" height="30" as="geometry">
            <mxRectangle width="30" height="30" as="alternateBounds" />
          </mxGeometry>
        </mxCell>
        <mxCell id="ksB0llgoSpzoCcr4nQAD-19" value="password" style="shape=partialRectangle;connectable=0;fillColor=none;top=0;left=0;bottom=0;right=0;align=left;spacingLeft=6;overflow=hidden;whiteSpace=wrap;html=1;strokeColor=default;fontFamily=Helvetica;fontSize=12;fontColor=default;startSize=30;" vertex="1" parent="ksB0llgoSpzoCcr4nQAD-17">
          <mxGeometry x="30" width="150" height="30" as="geometry">
            <mxRectangle width="150" height="30" as="alternateBounds" />
          </mxGeometry>
        </mxCell>
        <mxCell id="ksB0llgoSpzoCcr4nQAD-20" value="" style="shape=tableRow;horizontal=0;startSize=0;swimlaneHead=0;swimlaneBody=0;fillColor=none;collapsible=0;dropTarget=0;points=[[0,0.5],[1,0.5]];portConstraint=eastwest;top=0;left=0;right=0;bottom=0;strokeColor=default;fontFamily=Helvetica;fontSize=12;fontColor=default;html=1;" vertex="1" parent="ksB0llgoSpzoCcr4nQAD-1">
          <mxGeometry y="210" width="180" height="30" as="geometry" />
        </mxCell>
        <mxCell id="ksB0llgoSpzoCcr4nQAD-21" value="&lt;b&gt;FK&lt;/b&gt;" style="shape=partialRectangle;connectable=0;fillColor=none;top=0;left=0;bottom=0;right=0;editable=1;overflow=hidden;whiteSpace=wrap;html=1;strokeColor=default;fontFamily=Helvetica;fontSize=12;fontColor=default;startSize=30;" vertex="1" parent="ksB0llgoSpzoCcr4nQAD-20">
          <mxGeometry width="30" height="30" as="geometry">
            <mxRectangle width="30" height="30" as="alternateBounds" />
          </mxGeometry>
        </mxCell>
        <mxCell id="ksB0llgoSpzoCcr4nQAD-22" value="Id_Tusuario" style="shape=partialRectangle;connectable=0;fillColor=none;top=0;left=0;bottom=0;right=0;align=left;spacingLeft=6;overflow=hidden;whiteSpace=wrap;html=1;strokeColor=default;fontFamily=Helvetica;fontSize=12;fontColor=default;startSize=30;" vertex="1" parent="ksB0llgoSpzoCcr4nQAD-20">
          <mxGeometry x="30" width="150" height="30" as="geometry">
            <mxRectangle width="150" height="30" as="alternateBounds" />
          </mxGeometry>
        </mxCell>
        <mxCell id="FffT7zbsS5GmvREtao5J-1" value="TUSUARIO" style="shape=table;startSize=30;container=1;collapsible=1;childLayout=tableLayout;fixedRows=1;rowLines=0;fontStyle=1;align=center;resizeLast=1;html=1;strokeColor=default;fontFamily=Helvetica;fontSize=12;fontColor=default;fillColor=default;" vertex="1" parent="1">
          <mxGeometry x="390" y="140" width="180" height="170" as="geometry" />
        </mxCell>
        <mxCell id="FffT7zbsS5GmvREtao5J-2" value="" style="shape=tableRow;horizontal=0;startSize=0;swimlaneHead=0;swimlaneBody=0;fillColor=none;collapsible=0;dropTarget=0;points=[[0,0.5],[1,0.5]];portConstraint=eastwest;top=0;left=0;right=0;bottom=1;strokeColor=default;fontFamily=Helvetica;fontSize=12;fontColor=default;html=1;" vertex="1" parent="FffT7zbsS5GmvREtao5J-1">
          <mxGeometry y="30" width="180" height="30" as="geometry" />
        </mxCell>
        <mxCell id="FffT7zbsS5GmvREtao5J-3" value="PK" style="shape=partialRectangle;connectable=0;fillColor=none;top=0;left=0;bottom=0;right=0;fontStyle=1;overflow=hidden;whiteSpace=wrap;html=1;strokeColor=default;fontFamily=Helvetica;fontSize=12;fontColor=default;startSize=30;" vertex="1" parent="FffT7zbsS5GmvREtao5J-2">
          <mxGeometry width="30" height="30" as="geometry">
            <mxRectangle width="30" height="30" as="alternateBounds" />
          </mxGeometry>
        </mxCell>
        <mxCell id="FffT7zbsS5GmvREtao5J-4" value="&lt;span style=&quot;font-weight: normal;&quot;&gt;Id_Tusuario&lt;/span&gt;" style="shape=partialRectangle;connectable=0;fillColor=none;top=0;left=0;bottom=0;right=0;align=left;spacingLeft=6;fontStyle=5;overflow=hidden;whiteSpace=wrap;html=1;strokeColor=default;fontFamily=Helvetica;fontSize=12;fontColor=default;startSize=30;" vertex="1" parent="FffT7zbsS5GmvREtao5J-2">
          <mxGeometry x="30" width="150" height="30" as="geometry">
            <mxRectangle width="150" height="30" as="alternateBounds" />
          </mxGeometry>
        </mxCell>
        <mxCell id="FffT7zbsS5GmvREtao5J-5" value="" style="shape=tableRow;horizontal=0;startSize=0;swimlaneHead=0;swimlaneBody=0;fillColor=none;collapsible=0;dropTarget=0;points=[[0,0.5],[1,0.5]];portConstraint=eastwest;top=0;left=0;right=0;bottom=0;strokeColor=default;fontFamily=Helvetica;fontSize=12;fontColor=default;html=1;" vertex="1" parent="FffT7zbsS5GmvREtao5J-1">
          <mxGeometry y="60" width="180" height="50" as="geometry" />
        </mxCell>
        <mxCell id="FffT7zbsS5GmvREtao5J-6" value="" style="shape=partialRectangle;connectable=0;fillColor=none;top=0;left=0;bottom=0;right=0;editable=1;overflow=hidden;whiteSpace=wrap;html=1;strokeColor=default;fontFamily=Helvetica;fontSize=12;fontColor=default;startSize=30;" vertex="1" parent="FffT7zbsS5GmvREtao5J-5">
          <mxGeometry width="30" height="50" as="geometry">
            <mxRectangle width="30" height="50" as="alternateBounds" />
          </mxGeometry>
        </mxCell>
        <mxCell id="FffT7zbsS5GmvREtao5J-7" value="puesto" style="shape=partialRectangle;connectable=0;fillColor=none;top=0;left=0;bottom=0;right=0;align=left;spacingLeft=6;overflow=hidden;whiteSpace=wrap;html=1;strokeColor=default;fontFamily=Helvetica;fontSize=12;fontColor=default;startSize=30;" vertex="1" parent="FffT7zbsS5GmvREtao5J-5">
          <mxGeometry x="30" width="150" height="50" as="geometry">
            <mxRectangle width="150" height="50" as="alternateBounds" />
          </mxGeometry>
        </mxCell>
        <mxCell id="FffT7zbsS5GmvREtao5J-8" value="" style="shape=tableRow;horizontal=0;startSize=0;swimlaneHead=0;swimlaneBody=0;fillColor=none;collapsible=0;dropTarget=0;points=[[0,0.5],[1,0.5]];portConstraint=eastwest;top=0;left=0;right=0;bottom=0;strokeColor=default;fontFamily=Helvetica;fontSize=12;fontColor=default;html=1;" vertex="1" parent="FffT7zbsS5GmvREtao5J-1">
          <mxGeometry y="110" width="180" height="30" as="geometry" />
        </mxCell>
        <mxCell id="FffT7zbsS5GmvREtao5J-9" value="" style="shape=partialRectangle;connectable=0;fillColor=none;top=0;left=0;bottom=0;right=0;editable=1;overflow=hidden;whiteSpace=wrap;html=1;strokeColor=default;fontFamily=Helvetica;fontSize=12;fontColor=default;startSize=30;" vertex="1" parent="FffT7zbsS5GmvREtao5J-8">
          <mxGeometry width="30" height="30" as="geometry">
            <mxRectangle width="30" height="30" as="alternateBounds" />
          </mxGeometry>
        </mxCell>
        <mxCell id="FffT7zbsS5GmvREtao5J-10" value="nombre u" style="shape=partialRectangle;connectable=0;fillColor=none;top=0;left=0;bottom=0;right=0;align=left;spacingLeft=6;overflow=hidden;whiteSpace=wrap;html=1;strokeColor=default;fontFamily=Helvetica;fontSize=12;fontColor=default;startSize=30;" vertex="1" parent="FffT7zbsS5GmvREtao5J-8">
          <mxGeometry x="30" width="150" height="30" as="geometry">
            <mxRectangle width="150" height="30" as="alternateBounds" />
          </mxGeometry>
        </mxCell>
        <mxCell id="FffT7zbsS5GmvREtao5J-11" value="" style="shape=tableRow;horizontal=0;startSize=0;swimlaneHead=0;swimlaneBody=0;fillColor=none;collapsible=0;dropTarget=0;points=[[0,0.5],[1,0.5]];portConstraint=eastwest;top=0;left=0;right=0;bottom=0;strokeColor=default;fontFamily=Helvetica;fontSize=12;fontColor=default;html=1;" vertex="1" parent="FffT7zbsS5GmvREtao5J-1">
          <mxGeometry y="140" width="180" height="30" as="geometry" />
        </mxCell>
        <mxCell id="FffT7zbsS5GmvREtao5J-12" value="&lt;b&gt;FK&lt;/b&gt;" style="shape=partialRectangle;connectable=0;fillColor=none;top=0;left=0;bottom=0;right=0;editable=1;overflow=hidden;whiteSpace=wrap;html=1;strokeColor=default;fontFamily=Helvetica;fontSize=12;fontColor=default;startSize=30;" vertex="1" parent="FffT7zbsS5GmvREtao5J-11">
          <mxGeometry width="30" height="30" as="geometry">
            <mxRectangle width="30" height="30" as="alternateBounds" />
          </mxGeometry>
        </mxCell>
        <mxCell id="FffT7zbsS5GmvREtao5J-13" value="Id_usuario" style="shape=partialRectangle;connectable=0;fillColor=none;top=0;left=0;bottom=0;right=0;align=left;spacingLeft=6;overflow=hidden;whiteSpace=wrap;html=1;strokeColor=default;fontFamily=Helvetica;fontSize=12;fontColor=default;startSize=30;" vertex="1" parent="FffT7zbsS5GmvREtao5J-11">
          <mxGeometry x="30" width="150" height="30" as="geometry">
            <mxRectangle width="150" height="30" as="alternateBounds" />
          </mxGeometry>
        </mxCell>
        <mxCell id="gQCBQ1AB6-_4aFa-pfmf-2" value="" style="edgeStyle=none;orthogonalLoop=1;jettySize=auto;html=1;rounded=0;fontFamily=Helvetica;fontSize=12;fontColor=default;startSize=30;exitX=1;exitY=0.5;exitDx=0;exitDy=0;" edge="1" parent="1" source="ksB0llgoSpzoCcr4nQAD-2">
          <mxGeometry width="80" relative="1" as="geometry">
            <mxPoint x="270" y="210" as="sourcePoint" />
            <mxPoint x="390" y="300" as="targetPoint" />
            <Array as="points">
              <mxPoint x="330" y="165" />
              <mxPoint x="330" y="300" />
            </Array>
          </mxGeometry>
        </mxCell>
        <mxCell id="gQCBQ1AB6-_4aFa-pfmf-3" value="CUENTA" style="shape=table;startSize=30;container=1;collapsible=1;childLayout=tableLayout;fixedRows=1;rowLines=0;fontStyle=1;align=center;resizeLast=1;html=1;strokeColor=default;fontFamily=Helvetica;fontSize=12;fontColor=default;fillColor=default;" vertex="1" parent="1">
          <mxGeometry x="90" y="450" width="180" height="165" as="geometry" />
        </mxCell>
        <mxCell id="gQCBQ1AB6-_4aFa-pfmf-4" value="" style="shape=tableRow;horizontal=0;startSize=0;swimlaneHead=0;swimlaneBody=0;fillColor=none;collapsible=0;dropTarget=0;points=[[0,0.5],[1,0.5]];portConstraint=eastwest;top=0;left=0;right=0;bottom=1;strokeColor=default;fontFamily=Helvetica;fontSize=12;fontColor=default;html=1;" vertex="1" parent="gQCBQ1AB6-_4aFa-pfmf-3">
          <mxGeometry y="30" width="180" height="30" as="geometry" />
        </mxCell>
        <mxCell id="gQCBQ1AB6-_4aFa-pfmf-5" value="PK" style="shape=partialRectangle;connectable=0;fillColor=none;top=0;left=0;bottom=0;right=0;fontStyle=1;overflow=hidden;whiteSpace=wrap;html=1;strokeColor=default;fontFamily=Helvetica;fontSize=12;fontColor=default;startSize=30;" vertex="1" parent="gQCBQ1AB6-_4aFa-pfmf-4">
          <mxGeometry width="30" height="30" as="geometry">
            <mxRectangle width="30" height="30" as="alternateBounds" />
          </mxGeometry>
        </mxCell>
        <mxCell id="gQCBQ1AB6-_4aFa-pfmf-6" value="&lt;span style=&quot;font-weight: normal;&quot;&gt;Id_cuenta&lt;/span&gt;" style="shape=partialRectangle;connectable=0;fillColor=none;top=0;left=0;bottom=0;right=0;align=left;spacingLeft=6;fontStyle=5;overflow=hidden;whiteSpace=wrap;html=1;strokeColor=default;fontFamily=Helvetica;fontSize=12;fontColor=default;startSize=30;" vertex="1" parent="gQCBQ1AB6-_4aFa-pfmf-4">
          <mxGeometry x="30" width="150" height="30" as="geometry">
            <mxRectangle width="150" height="30" as="alternateBounds" />
          </mxGeometry>
        </mxCell>
        <mxCell id="gQCBQ1AB6-_4aFa-pfmf-7" value="" style="shape=tableRow;horizontal=0;startSize=0;swimlaneHead=0;swimlaneBody=0;fillColor=none;collapsible=0;dropTarget=0;points=[[0,0.5],[1,0.5]];portConstraint=eastwest;top=0;left=0;right=0;bottom=0;strokeColor=default;fontFamily=Helvetica;fontSize=12;fontColor=default;html=1;" vertex="1" parent="gQCBQ1AB6-_4aFa-pfmf-3">
          <mxGeometry y="60" width="180" height="25" as="geometry" />
        </mxCell>
        <mxCell id="gQCBQ1AB6-_4aFa-pfmf-8" value="" style="shape=partialRectangle;connectable=0;fillColor=none;top=0;left=0;bottom=0;right=0;editable=1;overflow=hidden;whiteSpace=wrap;html=1;strokeColor=default;fontFamily=Helvetica;fontSize=12;fontColor=default;startSize=30;" vertex="1" parent="gQCBQ1AB6-_4aFa-pfmf-7">
          <mxGeometry width="30" height="25" as="geometry">
            <mxRectangle width="30" height="25" as="alternateBounds" />
          </mxGeometry>
        </mxCell>
        <mxCell id="gQCBQ1AB6-_4aFa-pfmf-9" value="nom_usuario" style="shape=partialRectangle;connectable=0;fillColor=none;top=0;left=0;bottom=0;right=0;align=left;spacingLeft=6;overflow=hidden;whiteSpace=wrap;html=1;strokeColor=default;fontFamily=Helvetica;fontSize=12;fontColor=default;startSize=30;" vertex="1" parent="gQCBQ1AB6-_4aFa-pfmf-7">
          <mxGeometry x="30" width="150" height="25" as="geometry">
            <mxRectangle width="150" height="25" as="alternateBounds" />
          </mxGeometry>
        </mxCell>
        <mxCell id="gQCBQ1AB6-_4aFa-pfmf-10" value="" style="shape=tableRow;horizontal=0;startSize=0;swimlaneHead=0;swimlaneBody=0;fillColor=none;collapsible=0;dropTarget=0;points=[[0,0.5],[1,0.5]];portConstraint=eastwest;top=0;left=0;right=0;bottom=0;strokeColor=default;fontFamily=Helvetica;fontSize=12;fontColor=default;html=1;" vertex="1" parent="gQCBQ1AB6-_4aFa-pfmf-3">
          <mxGeometry y="85" width="180" height="30" as="geometry" />
        </mxCell>
        <mxCell id="gQCBQ1AB6-_4aFa-pfmf-11" value="" style="shape=partialRectangle;connectable=0;fillColor=none;top=0;left=0;bottom=0;right=0;editable=1;overflow=hidden;whiteSpace=wrap;html=1;strokeColor=default;fontFamily=Helvetica;fontSize=12;fontColor=default;startSize=30;" vertex="1" parent="gQCBQ1AB6-_4aFa-pfmf-10">
          <mxGeometry width="30" height="30" as="geometry">
            <mxRectangle width="30" height="30" as="alternateBounds" />
          </mxGeometry>
        </mxCell>
        <mxCell id="gQCBQ1AB6-_4aFa-pfmf-12" value="password" style="shape=partialRectangle;connectable=0;fillColor=none;top=0;left=0;bottom=0;right=0;align=left;spacingLeft=6;overflow=hidden;whiteSpace=wrap;html=1;strokeColor=default;fontFamily=Helvetica;fontSize=12;fontColor=default;startSize=30;" vertex="1" parent="gQCBQ1AB6-_4aFa-pfmf-10">
          <mxGeometry x="30" width="150" height="30" as="geometry">
            <mxRectangle width="150" height="30" as="alternateBounds" />
          </mxGeometry>
        </mxCell>
        <mxCell id="GqookiJUdJiTK8nhHK08-1" value="" style="shape=tableRow;horizontal=0;startSize=0;swimlaneHead=0;swimlaneBody=0;fillColor=none;collapsible=0;dropTarget=0;points=[[0,0.5],[1,0.5]];portConstraint=eastwest;top=0;left=0;right=0;bottom=0;strokeColor=default;fontFamily=Helvetica;fontSize=12;fontColor=default;html=1;" vertex="1" parent="gQCBQ1AB6-_4aFa-pfmf-3">
          <mxGeometry y="115" width="180" height="30" as="geometry" />
        </mxCell>
        <mxCell id="GqookiJUdJiTK8nhHK08-2" value="&lt;b&gt;FK&lt;/b&gt;" style="shape=partialRectangle;connectable=0;fillColor=none;top=0;left=0;bottom=0;right=0;editable=1;overflow=hidden;whiteSpace=wrap;html=1;strokeColor=default;fontFamily=Helvetica;fontSize=12;fontColor=default;startSize=30;" vertex="1" parent="GqookiJUdJiTK8nhHK08-1">
          <mxGeometry width="30" height="30" as="geometry">
            <mxRectangle width="30" height="30" as="alternateBounds" />
          </mxGeometry>
        </mxCell>
        <mxCell id="GqookiJUdJiTK8nhHK08-3" value="Id_usuario" style="shape=partialRectangle;connectable=0;fillColor=none;top=0;left=0;bottom=0;right=0;align=left;spacingLeft=6;overflow=hidden;whiteSpace=wrap;html=1;strokeColor=default;fontFamily=Helvetica;fontSize=12;fontColor=default;startSize=30;" vertex="1" parent="GqookiJUdJiTK8nhHK08-1">
          <mxGeometry x="30" width="150" height="30" as="geometry">
            <mxRectangle width="150" height="30" as="alternateBounds" />
          </mxGeometry>
        </mxCell>
        <mxCell id="gQCBQ1AB6-_4aFa-pfmf-13" value="" style="shape=tableRow;horizontal=0;startSize=0;swimlaneHead=0;swimlaneBody=0;fillColor=none;collapsible=0;dropTarget=0;points=[[0,0.5],[1,0.5]];portConstraint=eastwest;top=0;left=0;right=0;bottom=0;strokeColor=default;fontFamily=Helvetica;fontSize=12;fontColor=default;html=1;" vertex="1" parent="gQCBQ1AB6-_4aFa-pfmf-3">
          <mxGeometry y="145" width="180" height="20" as="geometry" />
        </mxCell>
        <mxCell id="gQCBQ1AB6-_4aFa-pfmf-14" value="" style="shape=partialRectangle;connectable=0;fillColor=none;top=0;left=0;bottom=0;right=0;editable=1;overflow=hidden;whiteSpace=wrap;html=1;strokeColor=default;fontFamily=Helvetica;fontSize=12;fontColor=default;startSize=30;" vertex="1" parent="gQCBQ1AB6-_4aFa-pfmf-13">
          <mxGeometry width="30" height="20" as="geometry">
            <mxRectangle width="30" height="20" as="alternateBounds" />
          </mxGeometry>
        </mxCell>
        <mxCell id="gQCBQ1AB6-_4aFa-pfmf-15" value="" style="shape=partialRectangle;connectable=0;fillColor=none;top=0;left=0;bottom=0;right=0;align=left;spacingLeft=6;overflow=hidden;whiteSpace=wrap;html=1;strokeColor=default;fontFamily=Helvetica;fontSize=12;fontColor=default;startSize=30;" vertex="1" parent="gQCBQ1AB6-_4aFa-pfmf-13">
          <mxGeometry x="30" width="150" height="20" as="geometry">
            <mxRectangle width="150" height="20" as="alternateBounds" />
          </mxGeometry>
        </mxCell>
        <mxCell id="6A1bJbfpStnQyK5yfTNT-1" value="" style="edgeStyle=none;orthogonalLoop=1;jettySize=auto;html=1;rounded=0;fontFamily=Helvetica;fontSize=12;fontColor=default;startSize=30;exitX=0;exitY=0.333;exitDx=0;exitDy=0;exitPerimeter=0;" edge="1" parent="1" source="ksB0llgoSpzoCcr4nQAD-2">
          <mxGeometry width="80" relative="1" as="geometry">
            <mxPoint x="60" y="160" as="sourcePoint" />
            <mxPoint x="90" y="583" as="targetPoint" />
            <Array as="points">
              <mxPoint y="160" />
              <mxPoint y="580" />
            </Array>
          </mxGeometry>
        </mxCell>
        <mxCell id="zJEVtbRZ8EasuZsoGbnN-17" value="APLICAIÃN" style="shape=table;startSize=30;container=1;collapsible=1;childLayout=tableLayout;fixedRows=1;rowLines=0;fontStyle=1;align=center;resizeLast=1;html=1;strokeColor=default;fontFamily=Helvetica;fontSize=12;fontColor=default;fillColor=default;" vertex="1" parent="1">
          <mxGeometry x="360" y="440" width="180" height="170" as="geometry" />
        </mxCell>
        <mxCell id="zJEVtbRZ8EasuZsoGbnN-18" value="" style="shape=tableRow;horizontal=0;startSize=0;swimlaneHead=0;swimlaneBody=0;fillColor=none;collapsible=0;dropTarget=0;points=[[0,0.5],[1,0.5]];portConstraint=eastwest;top=0;left=0;right=0;bottom=1;strokeColor=default;fontFamily=Helvetica;fontSize=12;fontColor=default;html=1;" vertex="1" parent="zJEVtbRZ8EasuZsoGbnN-17">
          <mxGeometry y="30" width="180" height="30" as="geometry" />
        </mxCell>
        <mxCell id="zJEVtbRZ8EasuZsoGbnN-19" value="PK" style="shape=partialRectangle;connectable=0;fillColor=none;top=0;left=0;bottom=0;right=0;fontStyle=1;overflow=hidden;whiteSpace=wrap;html=1;strokeColor=default;fontFamily=Helvetica;fontSize=12;fontColor=default;startSize=30;" vertex="1" parent="zJEVtbRZ8EasuZsoGbnN-18">
          <mxGeometry width="30" height="30" as="geometry">
            <mxRectangle width="30" height="30" as="alternateBounds" />
          </mxGeometry>
        </mxCell>
        <mxCell id="zJEVtbRZ8EasuZsoGbnN-20" value="&lt;span style=&quot;font-weight: normal;&quot;&gt;Id_aplicaciÃ³n&lt;/span&gt;" style="shape=partialRectangle;connectable=0;fillColor=none;top=0;left=0;bottom=0;right=0;align=left;spacingLeft=6;fontStyle=5;overflow=hidden;whiteSpace=wrap;html=1;strokeColor=default;fontFamily=Helvetica;fontSize=12;fontColor=default;startSize=30;" vertex="1" parent="zJEVtbRZ8EasuZsoGbnN-18">
          <mxGeometry x="30" width="150" height="30" as="geometry">
            <mxRectangle width="150" height="30" as="alternateBounds" />
          </mxGeometry>
        </mxCell>
        <mxCell id="zJEVtbRZ8EasuZsoGbnN-21" value="" style="shape=tableRow;horizontal=0;startSize=0;swimlaneHead=0;swimlaneBody=0;fillColor=none;collapsible=0;dropTarget=0;points=[[0,0.5],[1,0.5]];portConstraint=eastwest;top=0;left=0;right=0;bottom=0;strokeColor=default;fontFamily=Helvetica;fontSize=12;fontColor=default;html=1;" vertex="1" parent="zJEVtbRZ8EasuZsoGbnN-17">
          <mxGeometry y="60" width="180" height="30" as="geometry" />
        </mxCell>
        <mxCell id="zJEVtbRZ8EasuZsoGbnN-22" value="" style="shape=partialRectangle;connectable=0;fillColor=none;top=0;left=0;bottom=0;right=0;editable=1;overflow=hidden;whiteSpace=wrap;html=1;strokeColor=default;fontFamily=Helvetica;fontSize=12;fontColor=default;startSize=30;" vertex="1" parent="zJEVtbRZ8EasuZsoGbnN-21">
          <mxGeometry width="30" height="30" as="geometry">
            <mxRectangle width="30" height="30" as="alternateBounds" />
          </mxGeometry>
        </mxCell>
        <mxCell id="zJEVtbRZ8EasuZsoGbnN-23" value="procesador de textos" style="shape=partialRectangle;connectable=0;fillColor=none;top=0;left=0;bottom=0;right=0;align=left;spacingLeft=6;overflow=hidden;whiteSpace=wrap;html=1;strokeColor=default;fontFamily=Helvetica;fontSize=12;fontColor=default;startSize=30;" vertex="1" parent="zJEVtbRZ8EasuZsoGbnN-21">
          <mxGeometry x="30" width="150" height="30" as="geometry">
            <mxRectangle width="150" height="30" as="alternateBounds" />
          </mxGeometry>
        </mxCell>
        <mxCell id="zJEVtbRZ8EasuZsoGbnN-24" value="" style="shape=tableRow;horizontal=0;startSize=0;swimlaneHead=0;swimlaneBody=0;fillColor=none;collapsible=0;dropTarget=0;points=[[0,0.5],[1,0.5]];portConstraint=eastwest;top=0;left=0;right=0;bottom=0;strokeColor=default;fontFamily=Helvetica;fontSize=12;fontColor=default;html=1;" vertex="1" parent="zJEVtbRZ8EasuZsoGbnN-17">
          <mxGeometry y="90" width="180" height="30" as="geometry" />
        </mxCell>
        <mxCell id="zJEVtbRZ8EasuZsoGbnN-25" value="" style="shape=partialRectangle;connectable=0;fillColor=none;top=0;left=0;bottom=0;right=0;editable=1;overflow=hidden;whiteSpace=wrap;html=1;strokeColor=default;fontFamily=Helvetica;fontSize=12;fontColor=default;startSize=30;" vertex="1" parent="zJEVtbRZ8EasuZsoGbnN-24">
          <mxGeometry width="30" height="30" as="geometry">
            <mxRectangle width="30" height="30" as="alternateBounds" />
          </mxGeometry>
        </mxCell>
        <mxCell id="zJEVtbRZ8EasuZsoGbnN-26" value="calculadora financiera" style="shape=partialRectangle;connectable=0;fillColor=none;top=0;left=0;bottom=0;right=0;align=left;spacingLeft=6;overflow=hidden;whiteSpace=wrap;html=1;strokeColor=default;fontFamily=Helvetica;fontSize=12;fontColor=default;startSize=30;" vertex="1" parent="zJEVtbRZ8EasuZsoGbnN-24">
          <mxGeometry x="30" width="150" height="30" as="geometry">
            <mxRectangle width="150" height="30" as="alternateBounds" />
          </mxGeometry>
        </mxCell>
        <mxCell id="zJEVtbRZ8EasuZsoGbnN-27" value="" style="shape=tableRow;horizontal=0;startSize=0;swimlaneHead=0;swimlaneBody=0;fillColor=none;collapsible=0;dropTarget=0;points=[[0,0.5],[1,0.5]];portConstraint=eastwest;top=0;left=0;right=0;bottom=0;strokeColor=default;fontFamily=Helvetica;fontSize=12;fontColor=default;html=1;" vertex="1" parent="zJEVtbRZ8EasuZsoGbnN-17">
          <mxGeometry y="120" width="180" height="30" as="geometry" />
        </mxCell>
        <mxCell id="zJEVtbRZ8EasuZsoGbnN-28" value="&lt;b&gt;FK&lt;/b&gt;" style="shape=partialRectangle;connectable=0;fillColor=none;top=0;left=0;bottom=0;right=0;editable=1;overflow=hidden;whiteSpace=wrap;html=1;strokeColor=default;fontFamily=Helvetica;fontSize=12;fontColor=default;startSize=30;" vertex="1" parent="zJEVtbRZ8EasuZsoGbnN-27">
          <mxGeometry width="30" height="30" as="geometry">
            <mxRectangle width="30" height="30" as="alternateBounds" />
          </mxGeometry>
        </mxCell>
        <mxCell id="zJEVtbRZ8EasuZsoGbnN-29" value="Id_de usuario" style="shape=partialRectangle;connectable=0;fillColor=none;top=0;left=0;bottom=0;right=0;align=left;spacingLeft=6;overflow=hidden;whiteSpace=wrap;html=1;strokeColor=default;fontFamily=Helvetica;fontSize=12;fontColor=default;startSize=30;" vertex="1" parent="zJEVtbRZ8EasuZsoGbnN-27">
          <mxGeometry x="30" width="150" height="30" as="geometry">
            <mxRectangle width="150" height="30" as="alternateBounds" />
          </mxGeometry>
        </mxCell>
        <mxCell id="zJEVtbRZ8EasuZsoGbnN-36" value="" style="shape=tableRow;horizontal=0;startSize=0;swimlaneHead=0;swimlaneBody=0;fillColor=none;collapsible=0;dropTarget=0;points=[[0,0.5],[1,0.5]];portConstraint=eastwest;top=0;left=0;right=0;bottom=0;strokeColor=default;fontFamily=Helvetica;fontSize=12;fontColor=default;html=1;" vertex="1" parent="zJEVtbRZ8EasuZsoGbnN-17">
          <mxGeometry y="150" width="180" height="20" as="geometry" />
        </mxCell>
        <mxCell id="zJEVtbRZ8EasuZsoGbnN-37" value="&lt;b&gt;FK&lt;/b&gt;" style="shape=partialRectangle;connectable=0;fillColor=none;top=0;left=0;bottom=0;right=0;editable=1;overflow=hidden;whiteSpace=wrap;html=1;strokeColor=default;fontFamily=Helvetica;fontSize=12;fontColor=default;startSize=30;" vertex="1" parent="zJEVtbRZ8EasuZsoGbnN-36">
          <mxGeometry width="30" height="20" as="geometry">
            <mxRectangle width="30" height="20" as="alternateBounds" />
          </mxGeometry>
        </mxCell>
        <mxCell id="zJEVtbRZ8EasuZsoGbnN-38" value="Id_registro" style="shape=partialRectangle;connectable=0;fillColor=none;top=0;left=0;bottom=0;right=0;align=left;spacingLeft=6;overflow=hidden;whiteSpace=wrap;html=1;strokeColor=default;fontFamily=Helvetica;fontSize=12;fontColor=default;startSize=30;" vertex="1" parent="zJEVtbRZ8EasuZsoGbnN-36">
          <mxGeometry x="30" width="150" height="20" as="geometry">
            <mxRectangle width="150" height="20" as="alternateBounds" />
          </mxGeometry>
        </mxCell>
        <mxCell id="XScNVgQzFH4OTXKSqXsM-2" value="" style="edgeStyle=none;orthogonalLoop=1;jettySize=auto;html=1;rounded=0;fontFamily=Helvetica;fontSize=12;fontColor=default;startSize=30;exitX=1.004;exitY=0.772;exitDx=0;exitDy=0;exitPerimeter=0;" edge="1" parent="1" source="ksB0llgoSpzoCcr4nQAD-2">
          <mxGeometry width="80" relative="1" as="geometry">
            <mxPoint x="260" y="170" as="sourcePoint" />
            <mxPoint x="360" y="580" as="targetPoint" />
            <Array as="points">
              <mxPoint x="300" y="173" />
              <mxPoint x="300" y="580" />
              <mxPoint x="330" y="580" />
            </Array>
          </mxGeometry>
        </mxCell>
        <mxCell id="A466bM-h1vSBATWgWFuV-1" value="REGISTROS" style="shape=table;startSize=30;container=1;collapsible=1;childLayout=tableLayout;fixedRows=1;rowLines=0;fontStyle=1;align=center;resizeLast=1;html=1;strokeColor=default;fontFamily=Helvetica;fontSize=12;fontColor=default;fillColor=default;" vertex="1" parent="1">
          <mxGeometry x="670" y="440" width="180" height="170" as="geometry" />
        </mxCell>
        <mxCell id="A466bM-h1vSBATWgWFuV-2" value="" style="shape=tableRow;horizontal=0;startSize=0;swimlaneHead=0;swimlaneBody=0;fillColor=none;collapsible=0;dropTarget=0;points=[[0,0.5],[1,0.5]];portConstraint=eastwest;top=0;left=0;right=0;bottom=1;strokeColor=default;fontFamily=Helvetica;fontSize=12;fontColor=default;html=1;" vertex="1" parent="A466bM-h1vSBATWgWFuV-1">
          <mxGeometry y="30" width="180" height="30" as="geometry" />
        </mxCell>
        <mxCell id="A466bM-h1vSBATWgWFuV-3" value="PK" style="shape=partialRectangle;connectable=0;fillColor=none;top=0;left=0;bottom=0;right=0;fontStyle=1;overflow=hidden;whiteSpace=wrap;html=1;strokeColor=default;fontFamily=Helvetica;fontSize=12;fontColor=default;startSize=30;" vertex="1" parent="A466bM-h1vSBATWgWFuV-2">
          <mxGeometry width="30" height="30" as="geometry">
            <mxRectangle width="30" height="30" as="alternateBounds" />
          </mxGeometry>
        </mxCell>
        <mxCell id="A466bM-h1vSBATWgWFuV-4" value="&lt;span style=&quot;font-weight: normal;&quot;&gt;Id_registros&lt;/span&gt;" style="shape=partialRectangle;connectable=0;fillColor=none;top=0;left=0;bottom=0;right=0;align=left;spacingLeft=6;fontStyle=5;overflow=hidden;whiteSpace=wrap;html=1;strokeColor=default;fontFamily=Helvetica;fontSize=12;fontColor=default;startSize=30;" vertex="1" parent="A466bM-h1vSBATWgWFuV-2">
          <mxGeometry x="30" width="150" height="30" as="geometry">
            <mxRectangle width="150" height="30" as="alternateBounds" />
          </mxGeometry>
        </mxCell>
        <mxCell id="A466bM-h1vSBATWgWFuV-5" value="" style="shape=tableRow;horizontal=0;startSize=0;swimlaneHead=0;swimlaneBody=0;fillColor=none;collapsible=0;dropTarget=0;points=[[0,0.5],[1,0.5]];portConstraint=eastwest;top=0;left=0;right=0;bottom=0;strokeColor=default;fontFamily=Helvetica;fontSize=12;fontColor=default;html=1;" vertex="1" parent="A466bM-h1vSBATWgWFuV-1">
          <mxGeometry y="60" width="180" height="40" as="geometry" />
        </mxCell>
        <mxCell id="A466bM-h1vSBATWgWFuV-6" value="" style="shape=partialRectangle;connectable=0;fillColor=none;top=0;left=0;bottom=0;right=0;editable=1;overflow=hidden;whiteSpace=wrap;html=1;strokeColor=default;fontFamily=Helvetica;fontSize=12;fontColor=default;startSize=30;" vertex="1" parent="A466bM-h1vSBATWgWFuV-5">
          <mxGeometry width="30" height="40" as="geometry">
            <mxRectangle width="30" height="40" as="alternateBounds" />
          </mxGeometry>
        </mxCell>
        <mxCell id="A466bM-h1vSBATWgWFuV-7" value="actividad" style="shape=partialRectangle;connectable=0;fillColor=none;top=0;left=0;bottom=0;right=0;align=left;spacingLeft=6;overflow=hidden;whiteSpace=wrap;html=1;strokeColor=default;fontFamily=Helvetica;fontSize=12;fontColor=default;startSize=30;" vertex="1" parent="A466bM-h1vSBATWgWFuV-5">
          <mxGeometry x="30" width="150" height="40" as="geometry">
            <mxRectangle width="150" height="40" as="alternateBounds" />
          </mxGeometry>
        </mxCell>
        <mxCell id="A466bM-h1vSBATWgWFuV-8" value="" style="shape=tableRow;horizontal=0;startSize=0;swimlaneHead=0;swimlaneBody=0;fillColor=none;collapsible=0;dropTarget=0;points=[[0,0.5],[1,0.5]];portConstraint=eastwest;top=0;left=0;right=0;bottom=0;strokeColor=default;fontFamily=Helvetica;fontSize=12;fontColor=default;html=1;" vertex="1" parent="A466bM-h1vSBATWgWFuV-1">
          <mxGeometry y="100" width="180" height="50" as="geometry" />
        </mxCell>
        <mxCell id="A466bM-h1vSBATWgWFuV-9" value="&lt;b&gt;FK&lt;/b&gt;" style="shape=partialRectangle;connectable=0;fillColor=none;top=0;left=0;bottom=0;right=0;editable=1;overflow=hidden;whiteSpace=wrap;html=1;strokeColor=default;fontFamily=Helvetica;fontSize=12;fontColor=default;startSize=30;" vertex="1" parent="A466bM-h1vSBATWgWFuV-8">
          <mxGeometry width="30" height="50" as="geometry">
            <mxRectangle width="30" height="50" as="alternateBounds" />
          </mxGeometry>
        </mxCell>
        <mxCell id="A466bM-h1vSBATWgWFuV-10" value="transacciones financieras" style="shape=partialRectangle;connectable=0;fillColor=none;top=0;left=0;bottom=0;right=0;align=left;spacingLeft=6;overflow=hidden;whiteSpace=wrap;html=1;strokeColor=default;fontFamily=Helvetica;fontSize=12;fontColor=default;startSize=30;" vertex="1" parent="A466bM-h1vSBATWgWFuV-8">
          <mxGeometry x="30" width="150" height="50" as="geometry">
            <mxRectangle width="150" height="50" as="alternateBounds" />
          </mxGeometry>
        </mxCell>
        <mxCell id="A466bM-h1vSBATWgWFuV-11" value="" style="shape=tableRow;horizontal=0;startSize=0;swimlaneHead=0;swimlaneBody=0;fillColor=none;collapsible=0;dropTarget=0;points=[[0,0.5],[1,0.5]];portConstraint=eastwest;top=0;left=0;right=0;bottom=0;strokeColor=default;fontFamily=Helvetica;fontSize=12;fontColor=default;html=1;" vertex="1" parent="A466bM-h1vSBATWgWFuV-1">
          <mxGeometry y="150" width="180" height="20" as="geometry" />
        </mxCell>
        <mxCell id="A466bM-h1vSBATWgWFuV-12" value="" style="shape=partialRectangle;connectable=0;fillColor=none;top=0;left=0;bottom=0;right=0;editable=1;overflow=hidden;whiteSpace=wrap;html=1;strokeColor=default;fontFamily=Helvetica;fontSize=12;fontColor=default;startSize=30;" vertex="1" parent="A466bM-h1vSBATWgWFuV-11">
          <mxGeometry width="30" height="20" as="geometry">
            <mxRectangle width="30" height="20" as="alternateBounds" />
          </mxGeometry>
        </mxCell>
        <mxCell id="A466bM-h1vSBATWgWFuV-13" value="" style="shape=partialRectangle;connectable=0;fillColor=none;top=0;left=0;bottom=0;right=0;align=left;spacingLeft=6;overflow=hidden;whiteSpace=wrap;html=1;strokeColor=default;fontFamily=Helvetica;fontSize=12;fontColor=default;startSize=30;" vertex="1" parent="A466bM-h1vSBATWgWFuV-11">
          <mxGeometry x="30" width="150" height="20" as="geometry">
            <mxRectangle width="150" height="20" as="alternateBounds" />
          </mxGeometry>
        </mxCell>
        <mxCell id="BRyrjAodIw5L4L4iyuf8-1" value="" style="edgeStyle=none;orthogonalLoop=1;jettySize=auto;html=1;rounded=0;fontFamily=Helvetica;fontSize=12;fontColor=default;startSize=30;entryX=0;entryY=0.333;entryDx=0;entryDy=0;entryPerimeter=0;" edge="1" parent="1" target="A466bM-h1vSBATWgWFuV-2">
          <mxGeometry width="80" relative="1" as="geometry">
            <mxPoint x="540" y="600" as="sourcePoint" />
            <mxPoint x="660" y="480" as="targetPoint" />
            <Array as="points">
              <mxPoint x="600" y="600" />
              <mxPoint x="600" y="480" />
            </Array>
          </mxGeometry>
        </mxCell>
        <mxCell id="iOxlcJ025KJU3wto6N85-1" value="TRANSACCIONES FINANCIERAS" style="shape=table;startSize=30;container=1;collapsible=1;childLayout=tableLayout;fixedRows=1;rowLines=0;fontStyle=1;align=center;resizeLast=1;html=1;strokeColor=default;fontFamily=Helvetica;fontSize=12;fontColor=default;fillColor=default;" vertex="1" parent="1">
          <mxGeometry x="1030" y="440" width="210" height="170" as="geometry" />
        </mxCell>
        <mxCell id="iOxlcJ025KJU3wto6N85-2" value="" style="shape=tableRow;horizontal=0;startSize=0;swimlaneHead=0;swimlaneBody=0;fillColor=none;collapsible=0;dropTarget=0;points=[[0,0.5],[1,0.5]];portConstraint=eastwest;top=0;left=0;right=0;bottom=1;strokeColor=default;fontFamily=Helvetica;fontSize=12;fontColor=default;html=1;" vertex="1" parent="iOxlcJ025KJU3wto6N85-1">
          <mxGeometry y="30" width="210" height="30" as="geometry" />
        </mxCell>
        <mxCell id="iOxlcJ025KJU3wto6N85-3" value="PK" style="shape=partialRectangle;connectable=0;fillColor=none;top=0;left=0;bottom=0;right=0;fontStyle=1;overflow=hidden;whiteSpace=wrap;html=1;strokeColor=default;fontFamily=Helvetica;fontSize=12;fontColor=default;startSize=30;" vertex="1" parent="iOxlcJ025KJU3wto6N85-2">
          <mxGeometry width="30" height="30" as="geometry">
            <mxRectangle width="30" height="30" as="alternateBounds" />
          </mxGeometry>
        </mxCell>
        <mxCell id="iOxlcJ025KJU3wto6N85-4" value="&lt;span style=&quot;font-weight: normal;&quot;&gt;Id_Transacciones financieras&amp;nbsp;&lt;/span&gt;" style="shape=partialRectangle;connectable=0;fillColor=none;top=0;left=0;bottom=0;right=0;align=left;spacingLeft=6;fontStyle=5;overflow=hidden;whiteSpace=wrap;html=1;strokeColor=default;fontFamily=Helvetica;fontSize=12;fontColor=default;startSize=30;" vertex="1" parent="iOxlcJ025KJU3wto6N85-2">
          <mxGeometry x="30" width="180" height="30" as="geometry">
            <mxRectangle width="180" height="30" as="alternateBounds" />
          </mxGeometry>
        </mxCell>
        <mxCell id="iOxlcJ025KJU3wto6N85-5" value="" style="shape=tableRow;horizontal=0;startSize=0;swimlaneHead=0;swimlaneBody=0;fillColor=none;collapsible=0;dropTarget=0;points=[[0,0.5],[1,0.5]];portConstraint=eastwest;top=0;left=0;right=0;bottom=0;strokeColor=default;fontFamily=Helvetica;fontSize=12;fontColor=default;html=1;" vertex="1" parent="iOxlcJ025KJU3wto6N85-1">
          <mxGeometry y="60" width="210" height="50" as="geometry" />
        </mxCell>
        <mxCell id="iOxlcJ025KJU3wto6N85-6" value="" style="shape=partialRectangle;connectable=0;fillColor=none;top=0;left=0;bottom=0;right=0;editable=1;overflow=hidden;whiteSpace=wrap;html=1;strokeColor=default;fontFamily=Helvetica;fontSize=12;fontColor=default;startSize=30;" vertex="1" parent="iOxlcJ025KJU3wto6N85-5">
          <mxGeometry width="30" height="50" as="geometry">
            <mxRectangle width="30" height="50" as="alternateBounds" />
          </mxGeometry>
        </mxCell>
        <mxCell id="iOxlcJ025KJU3wto6N85-7" value="compras" style="shape=partialRectangle;connectable=0;fillColor=none;top=0;left=0;bottom=0;right=0;align=left;spacingLeft=6;overflow=hidden;whiteSpace=wrap;html=1;strokeColor=default;fontFamily=Helvetica;fontSize=12;fontColor=default;startSize=30;" vertex="1" parent="iOxlcJ025KJU3wto6N85-5">
          <mxGeometry x="30" width="180" height="50" as="geometry">
            <mxRectangle width="180" height="50" as="alternateBounds" />
          </mxGeometry>
        </mxCell>
        <mxCell id="iOxlcJ025KJU3wto6N85-8" value="" style="shape=tableRow;horizontal=0;startSize=0;swimlaneHead=0;swimlaneBody=0;fillColor=none;collapsible=0;dropTarget=0;points=[[0,0.5],[1,0.5]];portConstraint=eastwest;top=0;left=0;right=0;bottom=0;strokeColor=default;fontFamily=Helvetica;fontSize=12;fontColor=default;html=1;" vertex="1" parent="iOxlcJ025KJU3wto6N85-1">
          <mxGeometry y="110" width="210" height="30" as="geometry" />
        </mxCell>
        <mxCell id="iOxlcJ025KJU3wto6N85-9" value="" style="shape=partialRectangle;connectable=0;fillColor=none;top=0;left=0;bottom=0;right=0;editable=1;overflow=hidden;whiteSpace=wrap;html=1;strokeColor=default;fontFamily=Helvetica;fontSize=12;fontColor=default;startSize=30;" vertex="1" parent="iOxlcJ025KJU3wto6N85-8">
          <mxGeometry width="30" height="30" as="geometry">
            <mxRectangle width="30" height="30" as="alternateBounds" />
          </mxGeometry>
        </mxCell>
        <mxCell id="iOxlcJ025KJU3wto6N85-10" value="ventas" style="shape=partialRectangle;connectable=0;fillColor=none;top=0;left=0;bottom=0;right=0;align=left;spacingLeft=6;overflow=hidden;whiteSpace=wrap;html=1;strokeColor=default;fontFamily=Helvetica;fontSize=12;fontColor=default;startSize=30;" vertex="1" parent="iOxlcJ025KJU3wto6N85-8">
          <mxGeometry x="30" width="180" height="30" as="geometry">
            <mxRectangle width="180" height="30" as="alternateBounds" />
          </mxGeometry>
        </mxCell>
        <mxCell id="iOxlcJ025KJU3wto6N85-11" value="" style="shape=tableRow;horizontal=0;startSize=0;swimlaneHead=0;swimlaneBody=0;fillColor=none;collapsible=0;dropTarget=0;points=[[0,0.5],[1,0.5]];portConstraint=eastwest;top=0;left=0;right=0;bottom=0;strokeColor=default;fontFamily=Helvetica;fontSize=12;fontColor=default;html=1;" vertex="1" parent="iOxlcJ025KJU3wto6N85-1">
          <mxGeometry y="140" width="210" height="30" as="geometry" />
        </mxCell>
        <mxCell id="iOxlcJ025KJU3wto6N85-12" value="" style="shape=partialRectangle;connectable=0;fillColor=none;top=0;left=0;bottom=0;right=0;editable=1;overflow=hidden;whiteSpace=wrap;html=1;strokeColor=default;fontFamily=Helvetica;fontSize=12;fontColor=default;startSize=30;" vertex="1" parent="iOxlcJ025KJU3wto6N85-11">
          <mxGeometry width="30" height="30" as="geometry">
            <mxRectangle width="30" height="30" as="alternateBounds" />
          </mxGeometry>
        </mxCell>
        <mxCell id="iOxlcJ025KJU3wto6N85-13" value="pagos" style="shape=partialRectangle;connectable=0;fillColor=none;top=0;left=0;bottom=0;right=0;align=left;spacingLeft=6;overflow=hidden;whiteSpace=wrap;html=1;strokeColor=default;fontFamily=Helvetica;fontSize=12;fontColor=default;startSize=30;" vertex="1" parent="iOxlcJ025KJU3wto6N85-11">
          <mxGeometry x="30" width="180" height="30" as="geometry">
            <mxRectangle width="180" height="30" as="alternateBounds" />
          </mxGeometry>
        </mxCell>
        <mxCell id="rzI8w29356iQfCMfbxCr-1" value="" style="edgeStyle=none;orthogonalLoop=1;jettySize=auto;html=1;rounded=0;fontFamily=Helvetica;fontSize=12;fontColor=default;startSize=30;" edge="1" parent="1">
          <mxGeometry width="80" relative="1" as="geometry">
            <mxPoint x="850" y="570" as="sourcePoint" />
            <mxPoint x="1030" y="480" as="targetPoint" />
            <Array as="points">
              <mxPoint x="930" y="570" />
              <mxPoint x="930" y="480" />
            </Array>
          </mxGeometry>
        </mxCell>
      </root>
    </mxGraphModel>
  </diagram>
</mxfile>
